<?xml version="1.0" standalone="no"?>
<!DOCTYPE svg PUBLIC "-//W3C//DTD SVG 1.0//EN" "http://www.w3.org/TR/2001/REC-SVG-20010904/DTD/svg10.dtd">
<svg xmlns="http://www.w3.org/2000/svg" xmlns:xlink="http://www.w3.org/1999/xlink" id="body_1" width="170" height="34">

<g transform="matrix(0.4047619 0 0 0.4047619 1.6190476 -0)">
	<g transform="matrix(0.1 0 -0 -0.1 0 84)">
        <path d="M125 825C 103 817 71 795 53 777C 6 725 -2 667 2 392C 5 172 7 152 26 115C 66 42 122 11 219 10C 334 10 413 62 441 156C 461 225 461 625 441 694C 423 755 370 811 314 828C 260 844 175 843 125 825zM310 725C 321 715 334 691 340 671C 353 624 353 226 340 179C 327 134 302 111 257 103C 196 93 151 107 130 143C 112 172 110 195 110 423C 110 690 115 720 163 740C 198 755 287 746 310 725z" stroke="none" fill="#000000" fill-rule="nonzero" />
        <path d="M580 430L580 20L635 20L690 20L690 430L690 840L635 840L580 840L580 430z" stroke="none" fill="#000000" fill-rule="nonzero" />
        <path d="M820 645L820 450L1045 450L1270 450L1270 495L1270 540L1100 540L930 540L930 640L930 740L1100 740L1270 740L1270 790L1270 840L1045 840L820 840L820 645z" stroke="none" fill="#000000" fill-rule="nonzero" />
        <path d="M1400 645L1400 450L1455 450L1510 450L1510 519L1510 589L1558 592L1605 595L1608 643L1611 690L1561 690L1510 690L1510 765L1510 840L1455 840L1400 840L1400 645z" stroke="none" fill="#000000" fill-rule="nonzero" />
        <path d="M1809 825C 1753 807 1694 746 1685 697C 1681 679 1680 598 1682 519C 1685 377 1686 372 1713 337C 1808 212 2062 227 2130 361C 2149 398 2151 416 2148 558C 2145 738 2137 757 2053 807C 1996 840 1882 848 1809 825zM2016 716C 2039 690 2040 682 2040 549C 2040 468 2035 400 2029 388C 1993 321 1826 327 1800 396C 1787 430 1787 676 1800 700C 1819 736 1860 751 1929 747C 1984 744 1996 740 2016 716z" stroke="none" fill="#000000" fill-rule="nonzero" />
        <path d="M2260 475L2260 110L1970 110L1680 110L1680 65L1680 20L2025 20L2370 20L2370 430L2370 840L2315 840L2260 840L2260 475z" stroke="none" fill="#000000" fill-rule="nonzero" />
        <path d="M2950 681C 2950 592 2945 509 2939 493C 2913 423 2832 372 2731 362L2731 362L2665 355L2662 308L2659 260L2702 260C 2798 260 2917 302 2973 354L2973 354L3002 380L3032 355C 3095 302 3214 260 3303 260L3303 260L3340 260L3340 309L3340 358L3278 362C 3200 367 3129 400 3092 448C 3065 483 3065 485 3062 662L3062 662L3059 840L3004 840L2950 840L2950 681z" stroke="none" fill="#000000" fill-rule="nonzero" />
        <path d="M3470 485L3470 130L3760 130L4050 130L4050 75L4050 20L4105 20L4160 20L4160 430L4160 840L4105 840L4050 840L4050 760L4050 680L4005 680L3960 680L3960 630L3960 580L4005 580L4050 580L4050 520L4050 460L4005 460L3960 460L3960 410L3960 360L4005 360L4050 360L4050 295L4050 230L3815 230L3580 230L3580 535L3580 840L3525 840L3470 840L3470 485z" stroke="none" fill="#000000" fill-rule="nonzero" />
        <path d="M820 345L820 300L1110 300L1400 300L1400 275L1400 250L1110 250L820 250L820 130L820 10L1165 10L1510 10L1510 60L1510 110L1220 110L930 110L930 135L930 160L1220 160L1510 160L1510 275L1510 390L1165 390L820 390L820 345z" stroke="none" fill="#000000" fill-rule="nonzero" />
        <path d="M2950 185L2950 110L2805 110L2660 110L2660 65L2660 20L3005 20L3350 20L3350 65L3350 110L3205 110L3060 110L3060 185L3060 260L3005 260L2950 260L2950 185z" stroke="none" fill="#000000" fill-rule="nonzero" />
	</g>
</g>
</svg>